<svg width="257.09mm" height="210.65mm" version="1.1" viewBox="0 0 257.09 210.65" xmlns="http://www.w3.org/2000/svg">
 <g transform="translate(-10.504 10.728)">
  <path d="m96.073 199.88c-.0694-.0642-1.7336-.19442-3.6981-.28945-1.9645-.095-3.9886-.2199-4.4979-.27747-.50933-.0576-1.5809-.18044-2.3812-.27307-.80037-.0926-1.8719-.20953-2.3812-.25978-1.0345-.10205-2.7272-.34708-3.7148-.53773-.35798-.0691-1.1271-.18507-1.7092-.25771-.58209-.0726-1.356-.1997-1.7198-.28237-.36381-.0827-1.0186-.21102-1.4552-.28523-.43657-.0742-1.4486-.2929-2.249-.48598-.80037-.19308-1.6338-.35389-1.8521-.35736-.21829-.003-.66477-.0754-.99219-.15984-.32742-.0845-.80367-.20398-1.0583-.26562-4.1358-1.0011-9.1261-2.4079-9.7763-2.7558-.29645-.15866-.61131-.21616-.69969-.12779-.0884.0884-.31239.0391-.49781-.10961-.18542-.14866-1.4682-.64781-2.8507-1.1092-1.3824-.46141-2.8887-1.0116-3.3473-1.2226-.45856-.21102-.89673-.38368-.97373-.38368s-.9117-.35719-1.8549-.79375c-.9432-.43657-1.8894-.79375-2.1027-.79375s-.53605-.1786-.71721-.39688-.49382-.39687-.69481-.39687-.80973-.23813-1.3528-.52917-1.1379-.52917-1.322-.52917c-.18405 0-.33464-.10949-.33464-.24332 0-.13382-.58775-.43853-1.3061-.67713s-1.3434-.51606-1.3891-.61658c-.0456-.10051-.89275-.59948-1.8825-1.1088s-2.0266-1.1344-2.304-1.3891c-.27749-.25466-.61027-.46302-.73952-.46302-.43653 0-1.9038-.8306-1.9038-1.0777 0-.13487-.14243-.24521-.31651-.24521-.34802 0-2.4089-1.3366-2.5498-1.6536-.0485-.10914-.23865-.19843-.42254-.19843s-.62045-.23592-.97014-.52426c-.92688-.76429-1.0481-.85306-2.3556-1.7247-.65484-.43656-1.348-.94258-1.5402-1.1245s-.43569-.33073-.54087-.33073c-.10519 0-.7011-.47543-1.3242-1.0565-.62314-.58108-1.2897-1.1466-1.4812-1.2568-.55569-.31956-2.4562-1.9269-4.2099-3.5606-.89051-.82955-1.9381-1.782-2.328-2.1167-.46585-.39984-.76217-.97483-.86439-1.6773-.24571-1.6886-.36635-2.2167-.58714-2.5701-.25686-.41116-.33253-.80499-.45088-2.3465-.0516-.67265-.15706-1.3275-.23427-1.4552-.0772-.12771-.21288-.76799-.30151-1.4228-.0886-.65484-.22111-1.4883-.29441-1.8521-.0733-.36381-.19096-1.2568-.26146-1.9844-.0705-.7276-.20332-2.0373-.29516-2.9104-.42115-4.0038-.52105-6.475-.47064-11.642.0298-3.0559.12699-6.3302.21595-7.276.089-.94589.21295-2.3412.27551-3.1007.0626-.7595.18434-1.7715.27061-2.249.0863-.47743.19825-1.4832.24883-2.235.0506-.75183.15142-1.4662.22408-1.5875.0727-.12129.21041-.9349.30611-1.808.0957-.87312.22333-1.7661.28364-1.9844.0603-.21828.16361-.69453.22955-1.0583.0659-.3638.26039-1.2568.4321-1.9844s.37186-1.6767.44479-2.1092c.0729-.43244.61211-2.6351 1.1982-4.8948.58608-2.2597 1.1244-4.3764 1.1963-4.7039s.22907-.59532.34927-.59532c.12021 0 .17269-.23812.11664-.52916-.056-.29104-.004-.52917.11608-.52917.11989 0 .37098-.56555.55798-1.2568.41034-1.5168.32862-1.2427.84807-2.8443.23599-.7276.79373-2.1985 1.2394-3.2686.44569-1.0701.81034-2.1119.81034-2.3151 0-.20321.13891-.36947.30868-.36947s.24005-.0686.15618-.1525c-.0839-.0839.14593-.82801.51068-1.6536.36476-.82563.82048-1.8583 1.0127-2.2949.19224-.43656.56143-1.3295.82041-1.9844.25898-.65485.62594-1.348.81547-1.5403.18953-.19229.3446-.50762.3446-.70073 0-.34082 1.372-3.1793 1.7942-3.7121.11533-.14552.37921-.6813.58641-1.1906.20719-.50932.82787-1.7119 1.3793-2.6723s1.0026-1.8733 1.0026-2.0285.0991-.32189.22023-.3704c.12112-.0485.7364-.98117 1.3673-2.0726.63087-1.0914 1.2461-2.0241 1.3673-2.0726.12113-.0485.2224-.2271.22504-.39688.005-.29066 1.0987-2.064 1.9785-3.2068.21887-.28426.39794-.61671.39794-.73877 0-.12207.12127-.36574.26949-.5415 1.0179-1.207 1.318-1.6161 1.318-1.7964 0-.11286.15328-.36253.34063-.55483.18735-.19229.62005-.80626.96157-1.3644.34151-.55811.96213-1.3883 1.3792-1.8449.41702-.45658.75822-.92913.75822-1.0501 0-.12098.35664-.60046.79253-1.0655s.79584-.96461.79989-1.1101c.004-.14552.39155-.69751.86112-1.2266.46956-.52914 1.0324-1.2246 1.2506-1.5454.51269-.75355 1.8172-2.3116 2.5917-3.0956.33404-.33809.54711-.6147.47349-.6147-.0736 0 .16129-.32742.52201-.72761 1.271-1.4101 2.9081-3.246 4.0857-4.5819 1.7495-1.9848 10.766-11.013 12.533-12.55.83673-.7276 2.0203-1.7701 2.6302-2.3166 3.3156-2.9714 5.3278-4.687 5.502-4.6911.0879-.0021.46333-.27163.83431-.59905.37098-.32742.98249-.83344 1.3589-1.1245.37642-.29104.97489-.76729 1.3299-1.0583s1.2194-.94513 1.9209-1.4535c.70144-.5084 1.3499-1.0274 1.4411-1.1533.0912-.12592.57778-.48387 1.0814-.79543 2.1686-1.3416 3.6477-2.379 3.6477-2.5583 0-.10611.35568-.34026.79039-.52032.43471-.18006.74235-.4051.68365-.50009-.0587-.09499 1.2402-.94437 2.8864-1.8875 1.6462-.94315 2.951-1.7845 2.8996-1.8697-.0968-.16029 1.604-1.0762 2.214-1.1922.19019-.03618 1.1762-.55913 2.1912-1.1621 1.015-.60299 2.0548-1.1367 2.3106-1.1859.25587-.04928 1.0855-.45534 1.8437-.90237s1.3785-.7489 1.3785-.67084c0 .07807.62508-.17522 1.3891-.56286.76399-.38764 1.8653-.91472 2.4474-1.1713.58208-.25657 1.5253-.69098 2.096-.96536.5707-.27438 1.047-.44475 1.0583-.37862.0114.06614.49694-.13092 1.079-.4379 1.2843-.6773 4.0456-1.7551 4.1681-1.627.0487.05089.38091-.09224.73831-.31808.3574-.22584 1.1856-.5747 1.8404-.77526.65484-.20056 1.3097-.44585 1.4552-.5451.27873-.19009 1.6696-.56261 1.7848-.47802.037.0272.36499-.11528.72879-.31661.3638-.20134.72099-.37999.79375-.39701.99864-.23362 1.7804-.50527 2.0389-.70852.17553-.13798.43519-.17916.57703-.09149.14184.08766.32434.05188.40554-.07952.0812-.1314.58035-.32008 1.1092-.41929.52885-.09921 1.1552-.28856 1.392-.42079.23674-.13222.96623-.38368 1.6211-.55881 1.4352-.38382 1.3608-.36097 1.8521-.56885.21828-.09236.69453-.22481 1.0583-.29432.3638-.06951.95911-.19897 1.3229-.2877.36381-.08873.78052-.18748.92605-.21944.14552-.03196.38616-.13425.53475-.22731.1486-.09305.80344-.2487 1.4552-.34588.65177-.09718 1.3041-.27425 1.4496-.39349s.6813-.28369 1.1906-.36544c1.7522-.28125 3.7454-.68976 3.9339-.80622.10382-.06416 1.1959-.29857 2.4269-.52091 1.231-.22234 2.5311-.46681 2.889-.54327.70549-.15068 2.3924-.42311 3.4502-.55719.36381-.04611.95912-.15273 1.3229-.23693 1.0011-.2317 1.8388-.3622 3.4396-.53578 2.9692-.32199 4.0623-.454 4.5716-.55207.48522-.09345 2.9303-.31737 5.7472-.52635 1.552-.11513 11.124-.46346 12.832-.46695 1.3506-.0028 7.721.29286 10.583.49112.87312.06048 2.4643.16792 3.5359.23876 1.0716.07084 2.1683.1986 2.4371.28391s1.0958.20414 1.8378.26408c.742.05993 2.0861.24363 2.9869.40823.9008.1646 2.0545.34846 2.5638.4086.50932.06013 1.5809.25224 2.3812.4269.80036.17466 1.6338.3343 1.8521.35475s.45641.07001.52917.11012c.0728.04012.37041.10883.66146.15269.29104.04386.82682.15346 1.1906.24356.3638.0901.95911.20871 1.3229.26358.3638.05487 1.7926.41063 3.175.79058 1.3824.37995 2.7314.74103 2.9977.80241.26628.06138.70326.18113.97105.26613.26778.08499.70477.19716.97104.24926.97499.19075 4.2296 1.2634 5.7271 1.8875.84635.35273 1.6798.64207 1.8521.64296.17232.000794.66204.18349 1.0883.40576.42624.22228.96202.43572 1.1906.47433.2286.03861.65376.19673.94481.35138.29104.15466.85658.35946 1.2568.45513.40018.09566.7276.29775.7276.44909 0 .15134.11083.20666.2463.12294.13547-.08373.3211-.03122.41249.11668.0914.14789.34329.2689.55978.2689.33088 0 3.5293 1.4024 4.8668 2.1339.21828.11939 1.3741.70334 2.5685 1.2977 1.1944.59434 2.2432 1.1965 2.3307 1.338s.37563.25743.64026.25743c.26464 0 .62709.17586.80547.3908.17839.21494.96187.7027 1.741 1.0839.77917.38122 1.5554.8602 1.7248 1.0644.16946.20421.45392.37129.63211.37129.1782 0 .56986.20836.87038.46302.48138.40794 2.0873 1.4649 3.5668 2.3475.27379.16335.78182.54392 1.1289.8457.34708.30178.96491.72395 1.373.93815.40806.2142 1.1763.78613 1.7072 1.271.53091.48484 1.2297 1.0601 1.5529 1.2784.32319.21828.93059.73346 1.3498 1.1448.4192.41138.76218.67386.76218.58329s.28684.10863.63744.44267c.9154.87219 3.1667 2.8951 3.9347 3.5356.78222.65228 1.4415 1.8585 1.6363 2.9939.0778.45361.20494 1.2117.28244 1.6846s.24813 1.2171.37917 1.6536c.13105.43656.29988 1.27.37518 1.8521s.21842 1.5346.31801 2.1167c.0996.58208.2055 1.2965.23534 1.5875.0299.29104.1319.94588.22675 1.4552.84003 4.5108 1.0525 20.885.32957 25.4-.40868 2.5524-.51374 3.3714-.49223 3.8365.0135.29104-.0976 1.184-.24683 1.9844-.14926.80037-.30824 1.7529-.35336 2.1167-.187 1.5081-.9525 5.3624-1.188 5.982-.13949.36689-.25363.97829-.25363 1.3587 0 .38037-.11907 1.087-.26459 1.5703-.33559 1.1145-.5621 1.9426-1.4707 5.3766-.40425 1.528-.81677 2.8377-.91667 2.9104-.0999.0728-.33642.78713-.52554 1.5875-.18913.80036-.43778 1.6338-.55253 1.8521-.26943.51254-1.3183 3.7354-1.3563 4.1672-.0159.1819-.10652.33073-.20119.33073-.0947 0-.38679.68081-.64907 1.5129-.26231.8321-.65151 1.7794-.86487 2.105-.21339.32566-.31115.71642-.21728.86834.0939.15192.0526.27622-.0917.27622s-.34322.26789-.44201.59531c-.34102 1.13-1.7794 4.2999-2.022 4.456-.13377.0861-.22077.26468-.19328.39687.0788.37896-.87114 2.4893-1.1205 2.4893-.12345 0-.22444.17591-.22444.39091 0 .38652-1.3931 3.1369-1.9127 3.7763-.14782.1819-.19867.33073-.11297.33073.19838 0-4.559 8.2099-5.0307 8.6816-.1936.1936-.35201.50387-.35201.6895 0 .18562-.23812.61205-.52916.94762-.29104.33558-.52917.70248-.52917.81534s-.15327.36253-.34062.55483c-.18736.19229-.62757.82587-.97822 1.408-.35068.58208-.70377 1.1179-.7846 1.1906-.19949.17952-2.2348 3.2418-2.3708 3.5672-.0598.14293-.23836.40668-.39687.58613-1.0165 1.1508-2.2506 2.7728-3.4291 4.507-.41775.61479-1.1034 1.4776-1.5236 1.9173-.42024.43974-.69435.79953-.60913.79953.0852 0-.18163.34298-.59301.76219-.41137.41921-.92654 1.0252-1.1448 1.3466-.21828.32144-.75407.9819-1.1906 1.4677-.43656.48579-1.2398 1.3979-1.7849 2.0268-.54515.62896-1.5572 1.7864-2.249 2.5722-1.7556 1.994-10.752 10.994-12.59 12.594-.83536.7276-1.9841 1.7396-2.5528 2.249-.92343.82706-1.8067 1.5898-3.8296 3.3073-.34282.29104-.93128.76729-1.3077 1.0583-.3764.29104-.97171.76729-1.3229 1.0583-.35118.29104-.94649.76729-1.3229 1.0583-.3764.29104-.97489.76729-1.3299 1.0583-.35502.29104-1.2156.94589-1.9122 1.4552-.69668.50932-1.5087 1.1399-1.8045 1.4013-.29577.26142-.71638.62934-.93466.8176s-.90289.62138-1.5214.96248c-.61846.3411-1.1245.69658-1.1245.78995 0 .0934-.83068.63699-1.846 1.208-1.0153.57106-1.8487 1.1819-1.8521 1.3574-.003.17548-.86932.81529-1.9243 1.4218-1.055.60651-2.0373 1.2385-2.1828 1.4044-.40236.4587-1.6611 1.2204-2.0167 1.2204-.17354 0-1.5506.72192-3.0602 1.6043-1.5096.88234-2.9656 1.6468-3.2357 1.6988-.27006.052-.7129.20429-.98404.33839-1.9974.98787-3.1396 1.5179-3.2711 1.5179-.0846 0-.7443.28929-1.466.64286s-1.6991.80006-2.172.99219c-.47295.19213-1.2971.55768-1.8314.81234-.53432.25467-1.0403.46481-1.1245.46698-.23349.006-3.2596 1.1921-3.839 1.5046-.28109.15163-.81687.36945-1.1906.48404-.37375.1146-1.4832.50619-2.4655.87022-.98226.36402-1.7859.59836-1.7859.52075 0-.0776-.14883-.0239-.33073.11938-.31144.24531-1.7047.66542-1.8509.55808-.037-.0272-.36499.11528-.72879.31661s-.72099.37327-.79375.38208c-.17851.0216-4.7918 1.4614-5.2917 1.6515-.58112.221-.83871.29056-1.7198.46437-.43656.0861-1.0319.23535-1.3229.33162-.29105.0963-.61847.19578-.72761.22112-.10914.0254-.2282.0701-.26458.0994-.095.0766-.71808.2233-2.9766.70094-.43657.0923-.91282.23972-1.0583.32754-.14552.0878-.45032.18868-.67734.22413-.22701.0355-1.4706.31114-2.7636.61261-1.2929.30147-2.7594.61307-3.2588.69244-.49939.0794-1.1608.1979-1.4698.26342-2.134.45248-3.3617.67917-4.3982.81209-1.3108.1681-1.9844.28637-1.9844.34841 0 .092-2.2954.42239-4.8948.70461-2.384.25884-2.7781.3086-2.7781.35079 0 .0545-1.277.1767-3.9688.37987-1.1642.0879-2.7715.22196-3.5719.29796-1.9497.18514-16.779.44673-16.939.2988zm12.838-8.9985c.87313-.0899 2.4805-.2217 3.5719-.293 2.6926-.17591 6.6003-.46861 7.4083-.55492.36381-.0389.95912-.0932 1.3229-.12076.60234-.0456.5846-.0723-.19844-.29839-.47294-.13656-.85989-.34744-.85989-.46861 0-.12118-.29766-.16343-.66146-.0939-.37888.0724-.66146.003-.66146-.16243 0-.20364-.20822-.20971-.70565-.0206-.51044.19407-.75923.18159-.89934-.0451-.10653-.17236-.3843-.24024-.61727-.15085-.23296.0894-.42357.0727-.42357-.037 0-.10977-.20836-.22113-.46302-.24747-.67326-.0696-1.4636-.23541-1.9182-.40234-1.3367-.49083-2.2073-.69673-2.4116-.57042-.1288.0796-.23419.0224-.23419-.12716 0-.14955-.17859-.20337-.39688-.1196-.21952.0842-.39687.008-.39687-.17146 0-.18605-.21056-.26868-.49504-.19429-.28958.0757-.63607-.0662-.83482-.34195-.18688-.25928-.48453-.41587-.66147-.34797-.17693.0679-.48587-.0322-.68653-.2225-.20067-.19027-.89899-.37128-1.5518-.40224-.74328-.0353-1.3057-.21866-1.5046-.49066-.17469-.2389-.47292-.38259-.66275-.31932-.18982.0633-.50462-.0444-.69955-.23937-.19494-.19494-.46368-.2869-.59722-.20438-.13353.0825-.50761-.0354-.83128-.26215-.32368-.22671-.80014-.4122-1.0588-.4122-.25867 0-.47123-.0893-.47236-.19844-.002-.20784-1.2587-.85989-1.6571-.85989-.12691 0-.41337-.18264-.63659-.40586-.23294-.23294-.61944-.33807-.90715-.24675-.27827.0883-.50128.0335-.50128-.12331 0-.15533-.16015-.28242-.35587-.28242-.19573 0-.56883-.23531-.82911-.52292-.26029-.28761-.5668-.46511-.68114-.39445-.11434.0707-.38191-.0455-.5946-.25822-.21269-.21269-.46164-.31177-.55323-.22018-.0916.0916-.31412-.0309-.49452-.27224-.1804-.24133-.57943-.47557-.88675-.52055-.30732-.045-.76231-.28533-1.0111-.53411s-.61377-.45233-.8111-.45233c-.19732 0-.58973-.29362-.87201-.65248-.28229-.35887-.58072-.58502-.66318-.50257-.0825.0825-.40897-.0914-.7256-.3864-.31663-.29498-.74021-.47319-.9413-.39603-.2011.0772-.4389-.0506-.52846-.28402-.0896-.23338-.32985-.42433-.53398-.42433-.20414 0-.56983-.23203-.81264-.51561-.24282-.28359-.52723-.46262-.63203-.39785-.10481.0648-.47052-.17739-.8127-.53815-.34219-.36075-.72756-.65797-.8564-.66048-.12883-.003-.53364-.32764-.89958-.72249-.36594-.39486-.80958-.73909-.98588-.76496-.17629-.0259-.57901-.26836-.89493-.53886-.31592-.27049-.67895-.49181-.80675-.49181-.12779 0-.5922-.45282-1.032-1.0063s-.89695-1.0107-1.0158-1.016c-.40406-.0183-.79959-.35745-1.1129-.95424-.17188-.32742-.49065-.59531-.70838-.59531s-.4644-.1786-.54817-.39688c-.0838-.21828-.35116-.39687-.59423-.39687-.45922 0-1.8827-1.4423-1.8827-1.9076 0-.14613-.1725-.19949-.38333-.11859-.23193.089-.44797-.0566-.547-.36856-.09-.28362-.27164-.51567-.40362-.51567s-.42668-.36108-.6549-.8024c-.22821-.44132-.5159-.74-.63931-.66373-.1234.0763-.43623-.18467-.69518-.57987-.25894-.3952-.68732-.95095-.95195-1.235-.26464-.28406-.54814-.72752-.63002-.98548-.0819-.25816-.31045-.40702-.50829-.3311-.19962.0766-.42831-.0765-.51435-.34423-.0852-.26519-.50929-.8958-.9424-1.4014-.43312-.50556-.92519-1.2516-1.0935-1.6579-.24041-.58039-.3829-.67492-.66474-.44101-.28201.23405-.45869.11465-.82602-.55823-.25701-.47077-.73637-1.187-1.0652-1.5916s-1.0448-1.5003-1.591-2.4349c-.54616-.93463-1.1105-1.6623-1.2541-1.617-.34845.10985-7.1367-11.68-7.153-12.424-.007-.31987-.45352-1.3321-.99218-2.2494-.53867-.9173-.9794-1.7891-.9794-1.9373s-.31359-.80454-.69686-1.4586c-.51429-.87756-.61924-1.2667-.40058-1.4854s.12103-.59533-.37262-1.4377c-.3679-.62778-.5926-1.1414-.49934-1.1414.0933 0-.0817-.42586-.38878-.94636-.3071-.52049-.49548-1.0481-.41862-1.1724.13586-.21983-.33966-1.496-1.1086-2.975-.2082-.40048-.30187-.8522-.20817-1.0038.0937-.15163-.0234-.57146-.2603-.93298-.23687-.36151-.36425-.76477-.28307-.89612.0812-.13136.0209-.31713-.13396-.41284-.15485-.0957-.25117-.37182-.21402-.6136.0371-.24177-.15143-1.0038-.41904-1.6934-.37925-.97727-.4177-1.3368-.17432-1.6301.22365-.26948.22994-.42712.0222-.55553-.15955-.0986-.26158-.3771-.22673-.61887.0349-.24177-.0295-.71529-.14297-1.0523-.11348-.33697-.24888-.99182-.30088-1.4552-.13219-1.1781-.23354-1.5498-.60841-2.2316-.18003-.32742-.21366-.59532-.0747-.59532.15699 0 .14987-.37191-.0188-.98281-.19317-.6996-.18763-1.0107.0192-1.0797.20044-.0668.20858-.25007.0263-.59074-.27962-.52247-.53068-2.4256-.60984-4.6228-.0262-.7276-.1445-1.4726-.26287-1.6555-.13288-.20537-.0661-.3898.17449-.48214.2888-.11082.33553-.3384.18048-.879-.11506-.4012-.17435-1.0469-.13176-1.435.0426-.38802-.0438-.78042-.19196-.872-.17677-.10925-.16519-.23091.0337-.35382.22218-.13731.22698-.38748.018-.93716-.1568-.41241-.19118-.81926-.0764-.90409.27143-.20061.26823-1.1206-.005-1.5433-.12454-.19243-.0948-.33073.0712-.33073.17213 0 .21941-.26227.11922-.66145-.0973-.38754-.0522-.66146.10878-.66146.16702 0 .20421-.28538.0948-.72761-.21708-.87767-.19214-1.6264.0749-2.249.10924-.25467.12596-.65236.0372-.88378-.0888-.23141-.0819-.54952.0154-.70691s.19846-1.1106.22486-2.1182c.0264-1.0076.17283-1.9099.32541-2.0051.15258-.0951.25063-.76831.21789-1.4959-.0327-.7276.006-1.442.0863-1.5875.0802-.14552.18199-.49754.22626-.78226.0443-.28473.17853-.58239.29836-.66146.22782-.15034.25156-.27233.38843-1.9959.0462-.58209.18688-1.4751.31256-1.9844s.25012-1.0153.27652-1.1245.072-.2282.10133-.26458c.0293-.0364.0968-.24474.1499-.46302s.16307-.66477.24434-.99219c.0813-.32742.19675-.81422.25663-1.0818.32645-1.4586.81799-2.8706 1.1274-3.2385.19318-.22974.35123-.67623.35123-.99219s.11831-.57448.26292-.57448.21931-.26789.16601-.59531.0112-.80367.14326-1.0583c.51536-.99353-.21771-.37574-.95334.80341-.42792.68591-1.2911 1.9227-1.9182 2.7484-.62711.8257-1.1402 1.6294-1.1402 1.7859 0 .15658-.12609.28468-.28019.28468-.15411 0-.2129.1089-.13065.24199.0823.13309.0595.28192-.0505.33073-.30234.1341-1.3907 1.7481-1.3907 2.0624 0 .15141-.0999.2753-.22211.2753-.12216 0-.35915.30075-.52664.66834-.16748.36759-.54916.93314-.84818 1.2568-.73931.80018-2.8883 4.2177-2.8953 4.6044-.003.1715-.15449.47459-.33639.67353-.33992.37175-.71222 1.0264-2.148 3.7771-.45572.87312-.91789 1.6272-1.027 1.6757-.10914.0485-.19844.24836-.19844.44412s-.18285.53878-.40632.76226c-.22349.22347-.40374.46932-.40057.54632.003.077-.64742 1.5196-1.4458 3.2057-.79833 1.6862-1.4515 3.125-1.4515 3.1974 0 .0724-.40048.98557-.88996 2.0292-.7731 1.6484-2.094 4.8152-2.171 5.2048-.0144.0728-.17355.48948-.35373.92604-.18018.43657-.56126 1.5081-.84685 2.3812-.2856.87313-.62342 1.8256-.75072 2.1167-.20506.46881-.55043 1.3487-.67504 1.7198-.0244.0728-.14047.48948-.25787.92604-.1174.43657-.28293.91282-.36786 1.0583-.17003.29133-.29481.78025-.40514 1.5875-.0398.29104-.22514 1.0649-.41189 1.7198-.18676.65484-.36702 1.3097-.40058 1.4552-.0335.14552-.1966.59511-.36232.99909-.38011.92659-.59478 1.8868-.72304 3.2342-.0554.58208-.22223 1.475-.37072 1.9844-.5073 1.74-1.3118 5.4231-1.3004 5.9531.0239 1.108-.30846 3.9574-.57877 4.9613-.39494 1.4667-.61798 6.467-.59304 13.295.0285 7.7931.21772 10.822.8843 14.155.41402 2.0701.46336 2.3608.64694 3.8122.17359 1.3725.53539 2.2732.91311 2.2732.12501 0 .58831.32742 1.0296.7276.44125.40019 1.1943 1.0253 1.6735 1.3891.47917.3638 1.32 1.0782 1.8686 1.5875 1.421 1.3194 1.7511 1.5875 1.9545 1.5875.0989 0 1.0104.56554 2.0256 1.2568 1.0152.69122 2.1555 1.4354 2.534 1.6536s.8419.53791 1.0299.71027c.18796.17237.59884.395.91308.49474.31423.0997.85351.4635 1.1984.80838.34488.34488.92051.7007 1.2792.79072.35867.09.65213.24761.65213.35019 0 .10259.41672.35003.92604.54987.50933.19984.92605.46019.92605.57855s.10452.2152.23227.2152.69329.19263 1.2568.42806c.56347.23544 1.0418.38427 1.0629.33073.0211-.0535.25923.0821.52917.30138.26994.21929 1.0564.69306 1.7476 1.0528s1.2568.74588 1.2568.85806.12289.20396.27308.20396c.1502 0 .71574.19636 1.2568.43635.54103.24 1.1028.45471 1.2483.47714.80395.12393 1.9022.523 2.249.81722.21828.1852.89367.46898 1.5009.63061s1.143.40185 1.1906.53381c.0773.21412 4.7376 1.7276 6.229 2.0229.32238.0638.97722.34382 1.4552.6222.47799.27837 1.762.69738 2.8534.93113 1.0914.23376 2.163.4695 2.3812.52387.21828.0544.75406.18598 1.1906.29246.43656.10648.91281.28002 1.0583.38564.14552.10561.44318.1987.66146.20685.44197.0165 1.0655.15289 2.4627.53868.51765.14293 1.0008.20023 1.0737.12734.0729-.0729.28069-.041.46178.071.18109.11191.69502.22415 1.1421.24941.44706.0253 1.2891.17805 1.8712.33952.58208.16147 1.6536.36033 2.3812.4419.7276.0816 1.7396.22188 2.249.3118.50932.0899 1.1939.17769 1.5214.19507.32742.0174.59531.0974.59531.17787 0 .0805.74414.15892 1.6536.17438 2.1101.0359 4.0377.22952 4.378.43983.14596.0902.5452.16211.8872.15979.99464-.007 9.084.31147 9.1326.35926.11868.11667 8.8905-.0337 10.275-.17619zm14.155-1.1034c0-.0728-.0595-.13229-.13229-.13229-.0728 0-.13229.0595-.13229.13229 0 .0728.0595.13229.13229.13229.0728 0 .13229-.0595.13229-.13229zm22.093-7.6644c2.8506-.19812 2.9724-.21063 5.1594-.52965.80036-.11675 1.7529-.25007 2.1167-.29626 1.0281-.13054 1.4084-.24063 2.0505-.59371.3955-.21744.59532-.23225.59532-.0441 0 .19304.15504.20023.48699.0226.26784-.14334.71432-.25541.99219-.24904.78353.018 1.7086-.24869 2.1627-.62343.32091-.26481.43722-.26856.52194-.0169.0812.24102.27321.21631.75073-.0966.35293-.23125.6417-.33354.6417-.22731 0 .10624.32133-.0174.71408-.27473.44654-.29259.74957-.3614.80881-.18367.0953.28597.26556.22734 2.4031-.82769.48582-.23979.98366-.37396 1.1063-.29816.22717.1404 1.4585-.33358 3.2286-1.2428.54171-.27826 1.0273-.47037 1.079-.42692.0913.0767.81595-.25536 3.4261-1.57.69123-.34814 1.2568-.56911 1.2568-.49104 0 .0781.60055-.21216 1.3346-.64495s1.4782-.78823 1.6536-.78987c.1755-.002 1.212-.53608 2.3035-1.1876s2.1868-1.186 2.4342-1.1876c.24743-.002.54509-.15936.66145-.3505.11637-.19113.9855-.80382 1.9314-1.3615.94589-.55771 1.8389-1.1519 1.9844-1.3205s.94919-.69572 1.7859-1.1714c.83674-.47572 1.5214-.94799 1.5214-1.0495s.53655-.47764 1.1923-.83588c.65579-.35824 1.2572-.85568 1.3365-1.1054.0793-.24974.34639-.51913.59362-.59863.2472-.0795.86619-.50289 1.3755-.94085.50932-.43797 1.1283-.86135 1.3756-.94086.25926-.0834.38724-.30681.30241-.52789-.0809-.21084-.0348-.38334.10237-.38334.43807 0 2.7148-1.907 2.5654-2.1488-.079-.12787-.0441-.23249.0776-.23249.3285 0 2.0692-1.6513 1.9955-1.8929-.0349-.11439.18243-.33961.48302-.50049.71329-.38174 1.4298-1.1065 1.6429-1.6617.0934-.24355.29273-.44281.4428-.44281.1501 0 .27289-.15014.27289-.33364 0-.18349.35719-.62867.79375-.98928.43657-.36061.79375-.7816.79375-.93555 0-.15394.35214-.57197.78256-.92894.4304-.35698.78759-.77943.79375-.93877.006-.15935.24651-.50268.53412-.76297.2876-.26028.4732-.55371.4124-.65206-.0608-.0983.23969-.46808.6677-.82163.42802-.35354.77822-.77449.77822-.93544 0-.16094.23813-.50812.52917-.77151s.52917-.57814.52917-.69945c0-.1213.20836-.46389.46302-.76132.25466-.29742.47331-.6262.48588-.73062.0601-.49937.52065-1.2935.99338-1.7129.2881-.25558.45511-.53339.37115-.61736-.084-.084.0799-.38521.3641-.66943.28421-.28422.45513-.61649.37981-.73838-.0753-.12188.14713-.43496.49437-.69572.34721-.26075.57769-.61386.51213-.78468-.0655-.17081.0649-.46329.28974-.64994.2249-.18666.40892-.50339.40892-.70385s.11906-.36448.26458-.36448.26458-.29766.26458-.66146.11679-.66146.25953-.66146c.14277 0 .33428-.29765.42559-.66145.0913-.36381.27918-.66146.41751-.66146.13835 0 .17404-.12538.0793-.27863-.0947-.15324.0524-.48066.32697-.7276.27456-.24694.45535-.65734.40177-.912-.0536-.25466.0374-.46302.2022-.46302.16478 0 .22545-.11998.13483-.26661-.0907-.14664.0225-.4539.25138-.68279.22892-.2289.35967-.50761.29062-.61936-.0691-.11175.0821-.42958.33591-.70628.25382-.2767.41958-.71145.36833-.96611-.0513-.25466.0236-.46302.16605-.46302.14256 0 .19995-.22665.1275-.50366-.0911-.34826.0402-.55822.42548-.68051.30647-.0973.49506-.27738.41913-.40027-.20304-.3285.3878-2.9512.81814-3.6318.20381-.3223.37058-.76878.37058-.99218 0-.22341.10792-.40619.23982-.40619.13189 0 .17753-.23812.10141-.52916-.0761-.29105-.009-.52917.14878-.52917.15792 0 .22322-.16655.14509-.37011-.0781-.20357-.0201-.4455.12907-.53764.14906-.0921.20399-.34231.122-.55593-.082-.21362-.009-.3884.16168-.3884.19032 0 .24564-.20506.14277-.52917-.0924-.29104-.052-.52917.0897-.52917.14171 0 .19536-.23812.11924-.52916-.0761-.29105-.0122-.52917.1419-.52917.15412 0 .23437-.23813.17833-.52917-.056-.29104 0-.52916.12271-.52916.12354 0 .16492-.22828.092-.50729-.073-.279.0714-1.2017.32089-2.0505.24942-.84878.48691-2.1241.52771-2.8341s.21794-1.3797.39359-1.4883c.20651-.12762.22424-.25624.0501-.36382-.21225-.13118-.24942-1.0904-.0422-1.0904.0637 0 .24228-2.0037.32427-3.638.0347-.69119.14404-1.2567.24302-1.2568.099-4e-5.0775-.35726-.0477-.79382-.1252-.43656-.13599-.79375-.0241-.79375.25146 0 .16922-7.2238-.087-7.6383-.10171-.16455-.0805-.29918.0471-.29918.12761 0 .18974-.44649.13804-.99219s-.12129-1.7661-.15471-2.712c-.0334-.94588-.16017-1.8769-.28172-2.069-.12155-.19206-.25564-1.0255-.298-1.8521-.0423-.82659-.15719-1.8006-.25519-2.1644-.098-.36381-.20945-1.0186-.2476-1.4552-.0382-.43657-.1393-.97235-.22474-1.1906-.0855-.21828-.162-.57547-.17013-.79375-.052-1.3986-.342-2.8117-.6841-3.3338-.26078-.39796-.30335-.66588-.12348-.77703.15605-.0965.17859-.30218.0522-.47682-.37066-.51232-.92078-2.3207-.75608-2.4854.0849-.0849.0318-.30192-.11798-.48236-.14975-.18044-.32334-.59317-.38573-.91718-.0624-.324-.3143-.89561-.55975-1.2702-.27133-.41409-.33796-.71725-.16995-.77326.26149-.0872.13256-.41039-1.3194-3.3084-.32197-.64264-.38909-.99218-.19047-.99218.17529 0 .0124-.50193-.37994-1.1716-.37762-.64437-.6866-1.2904-.6866-1.4357s-.46963-1.0736-1.0436-2.063c-.57399-.98939-.93993-1.863-.81322-1.9413.29755-.18389-5.6777-10.473-6.0361-10.394-.14894.0329-.70935-.7245-1.2454-1.683-.53604-.95852-1.1932-1.9613-1.4603-2.2285-.26712-.26714-.67569-.85312-.90792-1.3022-.23222-.44906-.52763-.75133-.65645-.6717-.12883.07962-.50287-.33321-.83119-.91739-.32835-.58419-.69107-1.0622-.80606-1.0622-.11498 0-.39579-.36108-.62399-.8024-.22823-.44132-.52295-.73564-.65497-.65405-.13203.08159-.38458-.12287-.56121-.45437-.54224-1.0177-1.6722-2.3225-2.0112-2.3225-.17679-5e-6-.45368-.24714-.61534-.5492-.37812-.70652-1.2391-1.5675-1.5675-1.5675-.14042 0-.38754-.24714-.5492-.54919-.43312-.80927-1.1715-1.4821-1.5047-1.371-.16047.05349-.36941-.14743-.46432-.44648-.0949-.29905-.31662-.54373-.4927-.54373s-.62932-.35234-1.0072-.78298c-.37788-.43064-.74573-.72429-.81746-.65257-.0717.07172-.50139-.29212-.9548-.80853-.45342-.51641-.88212-.90737-.95266-.86878-.0706.03858-.37163-.1382-.66905-.39287-.29742-.25466-.6181-.46302-.71258-.46302-.0945 0-.50157-.36934-.90458-.82076-.40304-.45142-.83722-.7562-.96491-.6773-.12766.0789-.4486-.14483-.71321-.49718-.26459-.35235-.56714-.58746-.67228-.52247-.10515.06499-.41759-.09209-.6943-.34907-.46238-.42943-1.3102-.89139-1.7376-.94683-.0969-.01257-.40664-.28858-.68832-.61335-.28167-.32478-.58367-.51896-.67111-.43152-.0874.08744-.35174-.03379-.58735-.2694-.23561-.23561-.58002-.42837-.76533-.42837-.18535 0-.55248-.23812-.81587-.52917-.2634-.29104-.62445-.52917-.80235-.52917-.17794 0-.47062-.17728-.65045-.39396-.17982-.21668-.43337-.3282-.56343-.24781-.13005.08038-.30457-.03134-.38783-.24828-.0832-.21693-.37817-.35074-.6554-.29735-.2772.05339-.60412-.0818-.72647-.30042-.12234-.21862-.39214-.43125-.59952-.47251-.68-.1353-1.7777-.64776-1.9359-.90377-.0853-.138-.57311-.32934-1.084-.42518-.51091-.09585-.92895-.28794-.92895-.42687 0-.13893-.21164-.2526-.4703-.2526-.25865 0-.70514-.16338-.99218-.36307-.28705-.19969-.93692-.45344-1.4442-.56388-.50726-.11045-1.043-.36474-1.1906-.56508-.14761-.20034-.77377-.39308-1.3915-.4283-.61772-.03522-1.1237-.16207-1.1245-.28188 0-.11981-.20973-.17716-.46439-.12743-.25466.04972-.6662-.08263-.91454-.29413-.24831-.21149-.66503-.4264-.92604-.47759-.26098-.05118-.59359-.12843-.73911-.17166-.14552-.04323-.91943-.27293-1.7198-.51044-.80037-.23751-1.7529-.48852-2.1167-.5578-.3638-.06928-1.0493-.24388-1.5234-.388-.47405-.14412-1.151-.20961-1.5044-.14553s-.71348.0016-.80021-.13862c-.0867-.14032-.33245-.18807-.54607-.10609-.21363.08198-.38841.03213-.38841-.11077 0-.26619-1.5086-.71646-1.9844-.59229-.37804.09866-.70298.06871-1.4552-.13411-.3638-.09809-1.0029-.16422-1.4202-.14696-.4173.01725-.91271-.09642-1.1009-.25263-.23539-.19535-.39527-.19814-.51221-.0089-.1145.18527-.44829.15879-1.0225-.08112-.53574-.22384-1.0712-.27529-1.4411-.13845-.32724.12106-.58858.11442-.58858-.01495 0-.12797-.59964-.20204-1.3325-.16459-.7329.03744-1.3763-.0029-1.4299-.08953-.0902-.14614-1.6411-.13396-4.7121.037-.69124.03848-1.2568-.01101-1.2568-.11 2e-5-.09898-.32739-.09317-.72757.01291-.40019.10609-1.5015.17709-2.4474.15778-.94588-.01932-1.9835.05962-2.3057.17541-.33832.12156-.65353.10116-.74588-.04827-.088-.14234-.30054-.1709-.47239-.06348-.45177.2824-.94017.37486-2.4291.45986-1.4976.08548-2.7652.37086-3.2154.7239-.18982.14883-.34314.12472-.406-.06386-.0729-.21876-.35592-.19691-1.0179.07859-.5043.20988-1.0591.33354-1.233.2748-.17384-.05874-.56079.02418-.8599.18426-.38137.20421-.5437.20655-.5437.0079 0-.20121-.1532-.20121-.52917 0-.29104.15576-.52917.21529-.52917.13229s-.26789-.0011-.59531.18197c-.32742.18309-.83344.35386-1.1245.3795-.9541.08405-1.7667.33871-2.1867.6853-.30629.25274-.43985.26073-.51724.03094-.0781-.23188-.28351-.22338-.81687.03379-2.1238 1.024-2.6236 1.2268-2.8476 1.155-.29801-.09542-1.7389.43985-3.0894 1.1477-.54509.28569-1.1015.45119-1.2365.36778s-.66848.09797-1.1856.40308c-.51711.3051-1.0918.5771-1.2771.60443-.18528.02733-1.1416.49985-2.1251 1.05-.98351.55019-1.9042.92863-2.0461.84097-.25544-.15787-4.5066 2.2163-5.1872 2.8969-.19449.1945-1.1447.79603-2.1116 1.3367-.96687.54071-1.9765 1.2017-2.2437 1.4688-.26711.26713-.87897.6861-1.3596.93104-.48068.24493-1.0526.6093-1.2708.80971-.21829.20041-1.0517.82806-1.8521 1.3948-.80036.56673-1.6471 1.2043-1.8817 1.4168-.23456.2125-.80011.60707-1.2568.87683-.45666.26976-.8303.58579-.8303.70229 0 .1165-.40641.40562-.90312.64249-.49672.23687-.84931.57092-.78353.74234.0658.17142-.15289.4402-.48594.59728-.93171.43945-2.3253 1.6956-2.3253 2.096 0 .19718-.10682.3585-.23738.3585-.38723 0-1.8793 1.4122-1.8793 1.7787 0 .18588-.11293.33796-.25095.33796-.35936 0-1.6011 1.1962-1.6011 1.5424 0 .16009-.24146.4203-.53658.57825s-.48071.37757-.41242.48807c.0683.1105-.22603.49017-.65404.84372-.42802.35355-.77821.76877-.77821.92271 0 .15394-.35215.57197-.78255.92895-.4304.35698-.78759.77942-.79375.93877-.006.15935-.24933.50522-.54037.76861s-.52917.63101-.52917.81693-.23985.41417-.53301.50721c-.29315.093-.47243.26718-.39839.38698.074.11979-.0508.28898-.27751.37596-.22667.087-.34786.26213-.2693.38924.0785.1271-.0925.44405-.38011.70433s-.52293.57883-.52293.70788-.23812.49024-.52916.80263c-.29105.3124-.52917.72414-.52917.91498s-.12609.34699-.2802.34699-.20271.12538-.108.27862c.0947.15325-.0487.48067-.31877.72761-.27003.24694-.72744.92523-1.0165 1.5073-.28904.58208-.75297 1.2674-1.031 1.523-.27799.25559-.43399.53615-.34666.62348.0873.0873-.0681.40226-.34531.69985-.27724.29759-.44998.62861-.38385.73561.0661.10699-.0557.34057-.27082.51907-.21508.1785-.3219.43643-.23738.57319.0845.13675-.0932.46277-.39497.72448-.30176.26172-.46497.55953-.36269.66181s.0679.26878-.0763.37001c-.42402.29753-1.159 2.0112-1.2372 2.8846-.0157.17564-.18734.38026-.38137.45471-.19403.0745-.35278.36873-.35278.65395 0 .28521-.19277.71134-.42837.94694-.23561.23561-.3557.50105-.26688.58987.0888.0888.0265.32416-.1385.52296-.16499.19881-.22323.43823-.12942.53204.0938.0938-.0319.39431-.27937.66776s-.47248.6403-.50002.81522c-.0656.4165-.37443 2.0754-.46772 2.5124-.0402.18824-.25408.55364-.4753.812s-.37284.6699-.33694.91453c.0359.24462-.0364.44477-.1607.44477-.12429 0-.18012.23813-.12407.52917.056.29104-.007.52916-.13918.52916-.1326 0-.17255.1786-.0888.39688.0842.21952.008.39687-.17145.39687-.19349 0-.26807.21292-.18537.52917.0761.29104.0166.52917-.13229.52917-.14887 0-.2084.23812-.13229.52916.0761.29105.0305.52917-.10144.52917-.1319 0-.21815.0893-.19167.19844.0265.10914-.0854.6538-.24871 1.2104-.16326.55656-.2349 1.1733-.1592 1.3706.17182.44776-.73549 3.5706-1.0374 3.5706-.12186 0-.14825.11862-.0587.26359.28834.46655.37441 1.3239.1329 1.3239-.12881 0-.18834.23813-.13229.52917.056.29104.0194.52914-.0813.52911-.10078-4e-5-.17385.65481-.16236 1.4552.0115.8004-.0667 1.4553-.17367 1.4553-.107 0-.13228.23813-.0562.52917.0804.30756.008.52916-.17268.52916-.18445 0-.22558.13461-.10105.33073.28636.45099.2933.80221.0231 1.1671-.13375.18058-.10789.38111.0628.48658.17052.10538.19649.30614.063.48658-.12503.16894-.22011.87268-.21129 1.5639.009.69119-.0649 1.2567-.16392 1.2568-.099 5e-5-.0775.35727.0477.79383.14352.50043.13092.79375-.0341.79375-.14395 0-.17938.13324-.0787.29609.10064.16284.19991 1.7404.22059 3.5057.0207 1.7653.12589 3.3502.23381 3.5221.10792.17184.0733.38843-.077.4813-.15027.0929-.19811.29037-.10632.43889.0918.14852.213.76537.26936 1.3708.0564.60541.15175 1.4579.21198 1.8945.0602.43656.176 1.4327.25728 2.2136.0813.78093.27571 1.574.43205 1.7624.20072.24185.20146.39368.003.51664-.15496.0958-.19385.31473-.0864.48658.28182.45081.39754 1.0305.71575 3.5855.0792.636.273 1.3118.43065 1.5017.15765.18995.25999.50303.22743.69573-.0779.46095.29942 1.8549.60875 2.249.13431.1711.21756.46876.185.66145-.0942.55728.31507 1.8638.87631 2.7978.29447.49.39135.85989.22522.85989-.16808 0-.0486.47621.28212 1.1245.31552.61846.55365 1.1555.52919 1.1934-.0245.0379.14375.43293.37382.87783s.3723.94694.31606 1.1156c-.0562.1687.59078 1.6613 1.4378 3.3168.84702 1.6555 1.476 3.1136 1.3978 3.2402-.19922.32235 5.7621 10.556 6.1512 10.56.17478.002.75058.77685 1.2796 1.7227.52897.94589 1.054 1.7198 1.1668 1.7198.11278 0 .48931.53584.83674 1.1908.34743.65491.74895 1.1517.89226 1.1039.22911-.0764.9082.79871 2.2538 2.9042.21828.34156.53201.62123.69717.62149.16517.00027.51284.32484.7726.72129s.69017.95468.95647 1.2405c.2663.28584.48418.61632.48418.7344s.10823.18493.24051.14855c.26012-.0715 1.8762 1.6146 1.8762 1.9576 0 .11474.1786.14009.39688.0563.21828-.0838.39687-.0266.39687.12696 0 .37706 1.3293 1.7779 1.6115 1.6982.12365-.0349.35162.17343.50661.46302.15498.28959.44817.52653.65153.52653.20335 0 .44182.22713.52993.50473.13972.44023.69467.8557 1.239.92763.0951.0126.50397.38004.90856.8166.4046.43656.82277.79375.92928.79375.10652 0 .41204.24926.67894.5539.2669.30465.624.50645.79355.44846.16956-.058.37989.12017.46741.39592.0875.27576.48291.66926.87865.87446.39573.2052.9334.55169 1.1948.76997.26142.21828.56074.39309.66516.38847.10443-.005.42799.24516.71903.55507s.678.51213.8599.44938c.1819-.0628.33073.0149.33073.17253 0 .15765.16014.28663.35586.28663.19573 0 .56883.23532.82911.52293.26029.28761.57724.45866.70434.38011.1271-.0786.30226.0426.38924.2693.087.22667.26473.34625.395.26574.13014-.0805.23673-.0133.23673.14942 0 .1627.12538.21833.27863.12362.15324-.0947.49463.0769.75864.38126.264.3044.58723.55346.71828.55346s.67632.29765 1.2117.66146c.53539.3638 1.1438.66145 1.3519.66145.20819 0 .53123.18402.71789.40892.18665.2249.49888.3477.69385.27289.19497-.0748.35449-.0336.35449.0916 0 .12517.29765.3023.66146.39361.3638.0913.66145.28281.66145.42555 0 .14275.29766.25955.66146.25955s.66146.12609.66146.2802.11084.21169.2463.12797c.13547-.0837.32109-.0312.41249.11668.0914.14789.38878.2689.66084.2689s.65873.16407.85927.36461.77459.45192 1.2757.55862c.50108.10669 1.0896.3419 1.3079.52266.21828.18078 1.1509.48354 2.0724.67282.92156.18928 1.8145.48289 1.9844.65247.34609.34552 7.8284 2.3651 8.027 2.1666.0698-.0698.5049-.0138.96688.12454.46199.1383 1.1376.29902 1.5014.35715.36381.0581 1.3163.22391 2.1167.36838 2.9375.53026 5.0894.76378 9.1281.99059 1.6007.0899 2.9335.18235 2.9617.20547.12313.10081 6.27-.061 8.6799-.2285zm-14.42-5.2226c-.50932-.12003-1.9381-.27301-3.175-.33995-2.2853-.12367-3.2085-.25834-4.6302-.67539-.43656-.12806-1.5869-.43077-2.5563-.67268-1.7626-.43984-1.7626-.43984-17.416-27.55-8.6094-14.91-15.695-27.325-15.746-27.589-.0507-.2635-.38181-.93776-.73569-1.4984-.35388-.56058-.6484-1.1136-.65446-1.229-.0109-.20698-.43868-1.4053-.86966-2.436-.28684-.68603-.52402-1.5517-.47122-1.7198.0229-.0728-.12168-.42995-.32117-.79375-.1995-.3638-.39125-.78052-.42612-.92604-.0349-.14552-.136-.56224-.22472-.92605-.0887-.3638-.2182-.95911-.2877-1.3229s-.20046-.84005-.29099-1.0583c-.21549-.51955-.26223-.72307-.45816-1.995-.0906-.58791-.22899-1.3618-.3076-1.7198-.0786-.35798-.18857-1.0676-.24434-1.5769-.0558-.50932-.18526-1.5214-.28775-2.249-.3672-2.6069-.15759-12.906.27698-13.61.0543-.088.17019-.6384.25742-1.2232.0872-.58483.22566-1.3562.30764-1.7142.082-.35798.15293-.82946.15769-1.0477.0136-.62638 1.2923-5.1297 1.5419-5.4306.12374-.14915.28238-.6254.35254-1.0583.0702-.43293.15145-.84668.18065-.91945.0292-.0728.039-.22158.0217-.33072-.0172-.10914.0877-.19844.23326-.19844.14552 0 .26458-.17507.26458-.38903 0-.67512 3.0056-7.0885 3.638-7.7628.18191-.19395.33073-.45722.33073-.58506 0-.29932 1.6314-2.7444 1.9091-2.8612.11599-.0488.1436-.19764.0613-.33073s-.0315-.24199.11281-.24199c.1443 0 .33107-.20835.41503-.46302.084-.25466.50744-.87974.94105-1.3891s.87895-1.0463.98965-1.1934c1.7739-2.3563 5.9615-6.7302 7.8501-8.1993.76803-.59744 1.9446-1.5594 2.5376-2.0747.21828-.18968.87312-.62895 1.4552-.97616.58208-.3472 1.1774-.76761 1.3229-.93424.37588-.4304 6.327-3.8201 6.7067-3.8201.17339 0 .78759-.29817 1.3649-.6626s1.1405-.64131 1.2515-.61529c.21197.0497 1.332-.39669 2.4508-.97677.3638-.18862.75129-.35166.86108-.36231.53062-.0515 1.6814-.38757 1.917-.55986.23478-.17166 2.3751-.73804 3.3415-.88422.19949-.03018.48429-.131.63288-.22406.2397-.15011.80422-.2593 3.3017-.63862 4.9665-.75431 13.917-1.0406 16.14-.51622.3638.08584 1.1772.21106 1.8076.27824 1.1747.12521 4.7151.81655 5.3684 1.0483.20052.07113.66225.1862 1.026.25571 1.5056.28765 6.6673 2.0093 6.8792 2.2944.0728.0979.70691.37233 1.4092.60977 1.4163.47884 3.4367 1.5048 3.5743 1.815.0488.11005.19764.13279.33073.0505.13308-.0823.24199-.0235.24199.13064 0 .15411.1701.2802.37798.2802s.53531.15386.7276.3419c.1923.18805.73658.50015 1.2095.69356s.8599.44825.8599.56631.23024.28773.51167.37706c.53867.17096 3.5632 2.2934 4.9123 3.4472.43656.37335 1.2602 1.0614 1.8302 1.529 1.7656 1.4482 4.7963 4.6242 6.8285 7.1559.33091.41221.84711 1.0305 1.1472 1.374s.77359 1.048 1.0524 1.5656c.27877.51762.58989.94113.69141.94113.2272 0 3.9284 6.4344 3.9284 6.8294 0 .15627.26789.73646.59531 1.2893.52483.88616 1.1566 2.3502 1.3489 3.1261.0361.14552.1946.50271.35229.79375s.37407.94589.48085 1.4552c.10676.50932.27967 1.0451.38421 1.1906.181.25194 1.2049 4.0236 1.4725 5.424.0695.3638.20688 1.0782.30522 1.5875.0984.50932.20797 1.1642.24355 1.4552.0356.29104.0874.52917.11512.52917.0277 0 .0879.41672.13375.92604.0458.50932.14817 1.5809.22738 2.3813.29462 2.9762.17423 9.1892-.23836 12.303-.25675 1.9378-.33308 2.3737-.6024 3.4396-.14708.58208-.25988 1.2369-.25067 1.4552.0299.70729-1.2013 5.0271-1.4327 5.0271-.12349 0-.2245.17812-.2245.39582 0 .53566-1.0637 3.6234-1.3904 4.036-.14401.1819-.19394.33073-.11094.33073s-.46067 1.2204-1.2081 2.712c-.74747 1.4916-1.3366 2.8013-1.3091 2.9104.0274.10914-.0612.19844-.19687.19844-.13571 0-.32888.25874-.42926.57499-.10036.31624-.28943.70319-.42014.85989-.1307.1567-.7412 1.0588-1.3567 2.0047-.61545.94589-1.2381 1.854-1.3836 2.0181-.14554.16407-.4432.56213-.66148.88458-.21828.32244-.61558.84305-.88286 1.1569-.26731.31385-.98169 1.1565-1.5875 1.8725-1.6987 2.0076-5.6682 5.8344-7.4321 7.1648-.38585.29104-.98777.77465-1.3376 1.0747-.3498.30003-1.0595.77359-1.5772 1.0524-.5176.27876-.94112.5899-.94112.69142 0 .23448-6.4409 3.9284-6.8498 3.9284-.16748 0-.77684.29817-1.3542.6626-.5773.36444-1.1405.64132-1.2515.61529-.21881-.0513-1.3607.40903-2.5104 1.012-.39658.20798-.78406.37102-.86108.36231-.28874-.0326-1.603.33856-1.8575.52465-.2585.18901-2.9147.9049-3.4396.92704-.14552.006-.38365.0855-.52917.17644-.14552.0909-.74083.2404-1.3229.33221-1.2133.19137-2.098.35028-3.0427.54649-3.4124.70876-2.4794 1.8327-11.585-13.956-6.0808-10.545-8.1691-14.376-7.8692-14.44.22458-.0473 1.1515.17204 2.0598.48739.9083.31536 2.0086.62116 2.4452.67956s1.1509.1797 1.5875.26956c1.4998.30869 7.1448.37401 8.4857.0982.73807-.15183 1.6906-.33583 2.1167-.40889.4261-.0731 1.1914-.27075 1.7008-.43932.50933-.16857 1.1645-.32291 1.4559-.343.2914-.0201.76765-.16379 1.0583-.31936.29068-.15556.64757-.30735.7931-.3373.14552-.03.6813-.26705 1.1906-.52689s1.0202-.47657 1.1353-.48164c.40598-.0179 3.098-1.6426 3.098-1.8698 0-.12662.37002-.38349.82225-.57081.8142-.33725 4.7817-4.1194 6.0569-5.774.3638-.47202.86982-1.108 1.1245-1.4132s.46302-.69709.46302-.87084.23813-.59046.52917-.92604c.29104-.33557.52916-.77051.52916-.96652 0-.19602.11105-.3564.24675-.3564.13571 0 .33071-.26789.43334-.59531.1026-.32742.46781-1.2128.81158-1.9674.34375-.75466.625-1.5513.625-1.7703s.10343-.46213.22982-.54026c.12642-.0781.32168-.6507.43394-1.2724.11226-.62169.24733-1.3089.30014-1.5272.3524-1.4568.48443-3.2437.4789-6.4823-.006-3.7262-.088-4.4505-.77491-6.8792-.2058-.7276-.42963-1.6206-.49742-1.9844-.18116-.97239-.41214-1.5768-1.1349-2.9696-.35669-.68741-.63709-1.3156-.62307-1.396.0491-.28159-1.4092-2.7781-1.6227-2.7781-.11867 0-.41288-.38695-.65381-.85989s-.59294-1.0385-.78222-1.2568c-.93787-1.0816-5.0044-5.0271-5.1812-5.0271-.11144 0-.49305-.29044-.84804-.64542s-.71758-.57326-.80576-.48507c-.0882.0882-.16037.0344-.16037-.11964 0-.154-.29765-.35471-.66145-.44601-.36381-.0913-.66146-.27358-.66146-.40504 0-.13147-.41672-.37656-.92604-.54465-.50933-.16809-.92605-.39997-.92605-.5153 0-.11532-.53578-.35969-1.1906-.54303-.65485-.18335-1.1906-.4171-1.1906-.51946 0-.10235-.14882-.19896-.33073-.21469-.60893-.0526-1.1199-.21481-1.7253-.54758-.33042-.18163-.73069-.24995-.88947-.15182-.15879.0981-.36469.0579-.45755-.0893-.0929-.14724-.70464-.34188-1.3595-.43253-.65484-.0906-1.4883-.2294-1.8521-.30833-.99293-.21541-7.2364-.35102-7.5406-.16378-.14553.0896-.50271.18101-.79375.20321-1.0702.0816-2.907.42064-3.1694.58499-.28909.18103-.37264.20438-1.5931.44514-.43657.0861-1.0319.23535-1.3229.33162-.29104.0963-.5887.18841-.66146.20474-.60695.13626-4.9172 2.4-5.3016 2.7843-.27012.27012-.87626.69028-1.347.9337-.79285.41-4.8822 4.4125-6.2511 6.1183-.83684 1.0428-3.5131 5.7892-3.6422 6.4594-.0589.30555-.20572.69223-.32638.85929-1.2262 1.6976-2.7212 12.35-1.9365 13.797.0789.14552.15227.44318.16309.66146.0108.21828.12468.93265.253 1.5875.12832.65484.24217 1.2502.253 1.3229.0108.0728.11419.28112.22969.46302.1155.18191.1415.44157.0578.57703-.0837.13547-.0312.32109.11668.4125.14789.0914.26889.45147.26889.80016 0 1.4906 3.0612 7.0422 21.282 38.595 10.579 18.319 19.137 33.396 19.018 33.504-.11856.10853-1.213.27335-2.432.36627-1.2191.0929-2.3502.25591-2.5135.36219-.41292.26862-13.58.27422-14.717.006zm96.838-46.38c0-.0728-.0595-.13229-.13229-.13229-.0728 0-.13229.0595-.13229.13229 0 .0728.0595.13229.13229.13229.0728 0 .13229-.0595.13229-.13229zm1.8521-2.2614c.21828-.31132.57547-.78195.79375-1.0458s.57547-.74363.79375-1.0661c.21828-.32245.51594-.72051.66146-.88458s.62177-.83409 1.0583-1.4889c.43656-.65485.91281-1.3184 1.0583-1.4747s.50001-.72177.78777-1.2568c.28776-.53501.61518-.97274.7276-.97274s.20442-.1204.20442-.26757c0-.35466 2.1508-3.5492 3.1088-4.6175.18191-.20284.33073-.45427.33073-.55875 0-.10447.41093-.80903.91319-1.5657.50223-.75667 1.0653-1.7215 1.2514-2.1441.18603-.42256.40018-.82783.47588-.90059.0757-.0728.4037-.66807.72885-1.3229.32512-.65484 1.0094-1.905 1.5205-2.7781.51115-.87313 1.1381-2.0042 1.3932-2.5136.25511-.50932.52337-.98557.59613-1.0583.27048-.27048 1.0583-2.1483 1.0583-2.5225 0-.21334.11907-.3879.26459-.3879s.26458-.16271.26458-.36159c0-.50196 1.1241-3.1906 1.3791-3.2985.11462-.0485.20841-.29818.20841-.55483s.24212-.74579.53803-1.087.47823-.77613.40518-.96653c-.0731-.1904.003-.34618.16754-.34618.1652 0 .22201-.0783.12626-.17409-.0958-.0958-.0718-.30411.0532-.46302.12499-.15891.43739-.94377.69416-1.7441.25678-.80036.57471-1.5919.70647-1.7589.13176-.16706.29117-.52424.35422-.79375.41902-1.7906.62635-2.4409 1.0208-3.202.24511-.47294.3533-.86171.24043-.86394-.11287-.002-.0783-.0915.0768-.19844.36494-.25152 1.2499-3.1534 1.2495-4.097-.00019-.40018.0827-.72761.18415-.72761.10146 0 .33575-.6846.52064-1.5214.18487-.83674.43074-1.6404.54639-1.7859s.27763-.62177.35997-1.0583c.0824-.43656.3379-1.7462.5679-2.9104.23-1.1642.48432-2.5334.56518-3.0427.0808-.50932.25426-1.1285.38536-1.376s.30089-1.3072.37727-2.3548c.0764-1.0476.19185-1.9905.25657-2.0953.0647-.10474.19595-1.0096.29157-2.0108.0956-1.0012.24699-1.8799.33636-1.9526.0894-.0728.19117-1.2038.22614-2.5135.035-1.3097.1419-3.3338.2376-4.4979.23355-2.8412.22963-6.707-.0109-10.716-.10914-1.819-.24767-4.2598-.30787-5.424-.12493-2.4166-.17774-2.7756-.47945-3.2587-.11962-.19158-.15362-.41218-.0756-.49023.078-.07804.0161-.45708-.13737-.84229-.15359-.38522-.31681-1.2362-.36267-1.891-.0459-.65484-.16507-1.5478-.26487-1.9844-.18942-.82862-2.119-3.0427-2.6516-3.0427-.16891 0-.9478-.62553-1.7309-1.3901-1.532-1.4958-3.3734-2.8433-3.8854-2.8433-.17407 0-.3165-.09513-.3165-.21139 0-.11627-.47305-.50322-1.0512-.8599-.57817-.35668-1.0544-.7378-1.0583-.84694-.004-.10914-.17978-.19844-.39084-.19844s-.47895-.14883-.59531-.33073-.90982-.68792-1.7632-1.1245c-.85341-.43656-1.6103-.94258-1.682-1.1245-.0717-.1819-.28768-.33073-.48-.33073-.1923 0-.51941-.16975-.72687-.37721-.20748-.20747-.78152-.56226-1.2757-.78843-.49413-.22617-1.077-.51826-1.2953-.64909s-1.7066-.87736-3.3073-1.659-2.9494-1.5083-2.997-1.6148c-.0476-.10657-.55367-.31951-1.1245-.47322-.57081-.1537-1.0378-.3902-1.0378-.52554s-.1624-.18376-.36089-.10759c-.19852.07617-.8236-.1001-1.3891-.39171-1.2856-.66298-2.4609-1.1377-3.1334-1.2657-.28472-.05419-.59145-.21791-.68162-.36381-.0902-.1459-1.0479-.51338-2.1282-.81662-1.0803-.30324-2.0862-.64944-2.2354-.76934-.14914-.1199-.56586-.26689-.92604-.32664-.63688-.10566-.84074-.17128-2.507-.80705-.43656-.16658-.85328-.31194-.92604-.32302-.0728-.01109-.60854-.15247-1.1906-.31419-.87286-.2425-3.6144-.97368-5.7547-1.5348-.25466-.06676-.73091-.1819-1.0583-.25587-.32742-.07397-.89297-.20321-1.2568-.28721s-1.2568-.20906-1.9844-.27791c-.72761-.06885-1.6206-.22981-1.9844-.3577-.76208-.26789-1.8012-.4721-3.3073-.64997-1.7486-.2065-3.162-.45373-3.3884-.59268-.11734-.07203-1.2484-.1796-2.5135-.23904-1.2651-.05944-2.7169-.17924-3.2262-.26622-.50932-.08698-1.2237-.2107-1.5875-.27494-1.92-.33902-17.119-.55193-19.711-.27612-.72761.07742-2.335.20988-3.5719.29436-8.9464.61103-10.901.81361-11.634 1.2055-.27633.14789-.88728.26889-1.3577.26889s-.78788.06737-.70554.14971c.2889.28891 2.1859.33572 2.5157.06206.23426-.19442.33324-.18836.33324.02043 0 .16334.11131.29698.24736.29698s.58254.1359.99219.30201c.40965.16611.92342.33403 1.1417.37316.21828.03913.66226.13403.98663.21089.32436.07686.66239.02223.75116-.12142.10279-.16633.27294-.16957.46857-.0089.16897.13873.7239.32003 1.2332.40288.50932.08286 1.819.40372 2.9104.71302 1.0914.30931 2.1298.58676 2.3075.61655.17767.02979.40587.13698.5071.23821s.3924.18405.64707.18405c.25466 0 .5031.12024.5521.2672s.357.31881.68451.38187c.32747.06307.73181.19896.89849.30197.16669.10302.78391.23062 1.3716.28356.58772.05294 1.264.27306 1.5027.48915.23879.2161.63312.3929.87633.3929.2432 0 .4422.13295.4422.29544 0 .17123.23704.23346.56377.14801.31933-.08351.72906.01783.94496.23372.20963.20963.61449.38116.89972.38116.28522 0 .58422.17108.66444.38017.0802.20909.31465.31542.52089.23628.20622-.07914.37497-.01209.37497.149 0 .16109.18277.29289.40618.29289.22339 0 .6858.18321 1.0275.40714.34176.22392.72454.37604.85061.33804.24704-.07448 1.7082.80922 1.9856 1.2008.0929.13114.29299.16172.44473.06794.15174-.09378.34711-.05525.43418.08561.087.14087.92872.6354 1.8704 1.099.94163.46357 1.7121.9526 1.7121 1.0867 0 .13413.10104.18144.22452.10512.12348-.07632.50763.12502.85368.4474s.71739.58616.82524.58616c.10784 0 .43598.20542.72921.45649.29321.25106.69842.39305.90046.31552.20204-.07753.43852.04447.52549.27112.087.22664.27956.41208.42799.41208s.51321.20836.81063.46302c.29742.25466.59949.43042.67127.39058.0718-.03984.39534.19994.71904.53286.32369.33292.91395.77154 1.3117.9747.39777.20317.79274.58846.87773.8562.085.26774.36216.4868.61595.4868.25381 0 .71705.23812 1.0294.52917.31239.29104.67133.52917.79764.52917s.57711.41672 1.0018.92604c.42469.50932.87802.92604 1.0074.92604.26492 0 1.4867 1.3517 1.4872 1.6453.00018.10457.16814.12573.3733.04701.22256-.08541.4414.07253.54271.39168.0987.31088.32165.4765.53261.39555.38989-.14962 1.2385.57689 1.716 1.4691.16166.30206.46029.54919.66365.54919s.44585.23985.53891.53301c.093.29316.27966.46472.4147.38126.13505-.08346.24554-.02944.24554.12004 0 .14948.60573.89694 1.3461 1.661.74033.76408 1.5193 1.7243 1.7311 2.1337.21174.40947.48881.68033.61571.60191.12689-.07843.50369.30463.83735.85124.33364.54661.70419 1.0346.82341 1.0844.11925.0498.44884.54542.73247 1.1014.38415.75298.64199.97781 1.0108.88136.36102-.09441.58327.08343.82076.65676.1791.43242.5674 1.0457.86289 1.3629.29548.31716 1.0017 1.3715 1.5694 2.3429.56767.97144 1.1645 1.7662 1.3264 1.7662.39997 0 7.3518 12.053 7.192 12.469-.0699.18212.31162 1.0796.8478 1.9945.53615.91484 1.0109 1.8448 1.055 2.0666.0441.22181.38317.93422.75351 1.5831.4746.8316.59396 1.2755.40438 1.5039-.18804.22658-.10437.64779.27811 1.3999.30091.59167.78486 1.5452 1.0755 2.119.29059.57377.42897 1.1046.30749 1.1797-.12147.0751.16619.94507.63921 1.9333.47302.98828.74547 1.8385.60542 1.8894-.14007.0509-.0616.38718.17431.74726.45609.69606.65921 1.3636.767 2.5204.0366.39294.22209.90184.41217 1.1309.19007.22904.27014.49189.1779.58413-.0922.0922-.0309.33253.13629.53399.22289.26855.22556.4447.0101.66019-.21388.21388-.21489.4415-.004.83603.21177.39569.21026.56876-.006.64069-.20052.0668-.16465.29851.11147.71994.22392.34175.41521 1.0175.42508 1.5016.01.48411.0881.99927.17389 1.1448.25011.42436.6383 2.7353.58891 3.5057-.0117.1819-.0317.47956-.0444.66146s.098.71768.24611 1.1906c.17008.54314.17518.8599.0138.8599-.15491 0-.14399.20822.0278.52917.15576.29104.20489.52916.10919.52916s-.0346.168.13584.37332c.21545.25961.224.42636.0281.54745-.15494.0958-.21211.28676-.12705.42441.28734.46492.36039 2.4741.0959 2.6376-.1719.10624-.16407.42092.0228.91205.20899.54968.20418.79985-.018.93717-.19886.1229-.21045.24457-.0337.35382.14816.0916.23455.48397.19195.87199s.0191 1.0424.13727 1.4541c.12208.42572.1121.74858-.023.74858-.13081 0-.16928.17859-.0855.39687.0845.22016.007.39688-.17302.39688-.22484 0-.24362.10212-.0609.33073.27442.34327.26868 1.935-.008 2.2117-.0868.0868-.0509.43903.0798.78272.15025.39515.1393.68563-.0297.7901-.17524.1083-.16148.29273.0399.5354.23863.28755.21733.40469-.0955.52473-.30932.1187-.3512.33419-.18057.92917.12218.42605.12472.77464.006.77464-.19513 0-.23918.51069-.29096 3.3734-.008.47295-.14057.8599-.2934.8599-.15631 0-.21225.26134-.12787.59751.0825.32863.0427.77112-.0885.98331-.1493.24159-.12684.52029.0601.74558.2226.26821.21908.4089-.0138.55286-.17184.1062-.33898.51384-.37144.90587-.0324.39203-.16598.71279-.29671.71279-.13075 0-.1755.238-.0994.5289s.031.59521-.10012.67625c-.13112.081-.22407.52765-.20656.99246.0302.80076-.0806 1.4598-.43137 2.5649-.085.26779-.20908.73453-.2757 1.0372-.26524 1.2046-.34962 1.5044-.62029 2.204-.15486.40018-.22336.72761-.15224.72761.0711 0-.0408.407-.24863.90445-.20783.49746-.32776.95459-.26651 1.0159.0613.0613-.11941.32029-.40153.57561-.28239.25556-.44419.64342-.35994.86292.0841.2193.0228.47928-.13666.57774-.15931.0985-.33081.72534-.38111 1.3931-.0516.68529-.28797 1.4106-.54266 1.6653-.24815.24816-.45119.50497-.45119.57069 0 .24818 1.2072-.68574 1.5875-1.2281zm-180.71-67.059c0-.0728-.0595-.13229-.13229-.13229-.0728 0-.13229.0595-.13229.13229 0 .0728.0595.13229.13229.13229.0728 0 .13229-.0595.13229-.13229z" fill="#1f81fe"/>
 </g>
</svg>
